<svg xmlns="http://www.w3.org/2000/svg" width="52" height="41.278" viewBox="0 0 52 41.278">
  <g id="icon" transform="translate(0 -5.361)">
    <g id="Grupo_3" data-name="Grupo 3">
      <g id="Grupo_2" data-name="Grupo 2">
        <path id="Trazado_7" data-name="Trazado 7" d="M47.98,10.722H43.074l-2.982-4.97-.009-.014-.027-.04-.021-.028-.026-.031-.027-.03-.025-.025-.032-.029L39.9,5.532l-.034-.025-.032-.021-.032-.02-.038-.02-.029-.014-.044-.018L39.66,5.4l-.046-.014-.03-.008-.044-.009L39.5,5.368l-.039,0-.044,0H23.3l-.047,0-.036,0-.039.006-.041.008-.033.008-.043.013-.03.011-.042.017-.031.015-.037.019-.033.02-.031.021-.034.025-.027.022-.032.029-.025.025-.027.03-.026.032-.021.028-.027.04-.009.014-2.982,4.97H12.33V8.309a.8.8,0,0,0-.8-.8H5.093a.8.8,0,0,0-.8.8v2.412H4.021A4.025,4.025,0,0,0,0,14.742V42.618a4.025,4.025,0,0,0,4.021,4.021H47.979A4.025,4.025,0,0,0,52,42.618V14.742A4.025,4.025,0,0,0,47.98,10.722ZM5.9,9.113h4.825v1.608H5.9ZM47.98,45.031H12.33V14.742a.8.8,0,1,0-1.608,0V45.031h-6.7a2.415,2.415,0,0,1-2.412-2.412V36.936H4.021a.8.8,0,1,0,0-1.608H1.608V32.674H4.021a.8.8,0,1,0,0-1.608H1.608V28.412H4.021a.8.8,0,0,0,0-1.608H1.608V24.15H4.021a.8.8,0,0,0,0-1.608H1.608v-7.8A2.415,2.415,0,0,1,4.021,12.33H20.108a.831.831,0,0,0,.089-.006l.025,0c.024,0,.047-.008.07-.014l.024-.006c.025-.007.049-.015.073-.024l.017-.006a.805.805,0,0,0,.085-.04l.014-.009c.022-.013.043-.026.063-.041l.026-.02q.026-.02.049-.042l.022-.02a.757.757,0,0,0,.062-.068l.011-.015c.017-.022.032-.044.047-.067l.007-.01,2.982-4.97H38.947l2.982,4.97.007.01a.8.8,0,0,0,.047.067l.011.015a.82.82,0,0,0,.062.068l.022.02q.024.022.049.042l.026.02c.02.015.041.028.063.041l.014.009a.793.793,0,0,0,.085.04l.017.006c.024.009.048.017.073.024l.024.006c.023.006.047.01.07.014l.025,0a.832.832,0,0,0,.089.006h5.365a2.415,2.415,0,0,1,2.412,2.412V42.619h0A2.415,2.415,0,0,1,47.98,45.031Z"/>
      </g>
    </g>
    <g id="Grupo_5" data-name="Grupo 5">
      <g id="Grupo_4" data-name="Grupo 4">
        <path id="Trazado_8" data-name="Trazado 8" d="M31.36,18.227a10.99,10.99,0,1,0,10.99,10.99A11,11,0,0,0,31.36,18.227Zm0,20.371a9.381,9.381,0,1,1,9.381-9.381A9.392,9.392,0,0,1,31.36,38.6Z"/>
      </g>
    </g>
    <g id="Grupo_7" data-name="Grupo 7">
      <g id="Grupo_6" data-name="Grupo 6">
        <path id="Trazado_9" data-name="Trazado 9" d="M35.925,25.479a3.633,3.633,0,0,0-4.565-.465,3.631,3.631,0,0,0-4.566,5.6l4,4a.8.8,0,0,0,1.137,0l4-4a3.63,3.63,0,0,0,0-5.135Zm-1.137,4L31.36,32.9l-3.429-3.428a2.022,2.022,0,1,1,2.86-2.86.8.8,0,0,0,1.137,0,2.022,2.022,0,1,1,2.859,2.86Z"/>
      </g>
    </g>
    <g id="Grupo_9" data-name="Grupo 9">
      <g id="Grupo_8" data-name="Grupo 8">
        <path id="Trazado_10" data-name="Trazado 10" d="M39.077,11.227l-.858-2.144,0,0c-.007-.017-.015-.034-.023-.051L38.182,9c-.007-.014-.015-.027-.023-.04l-.018-.03-.018-.024c-.01-.013-.019-.027-.03-.04l-.007-.008a.8.8,0,0,0-.1-.1l-.01-.007c-.017-.013-.033-.026-.051-.038s-.038-.024-.058-.035l-.007,0a.8.8,0,0,0-.133-.057l-.009,0L37.667,8.6,37.639,8.6,37.6,8.589l-.044-.007-.027,0-.055,0H25.245l-.059,0-.023,0-.049.008-.031.005L25.05,8.6l-.044.012-.016.006-.058.021,0,0c-.023.01-.045.02-.066.032l-.015.009c-.017.01-.034.02-.05.03s-.036.026-.054.04l-.007.005a.805.805,0,0,0-.1.1l-.008.009c-.01.013-.02.026-.029.039l-.018.025-.018.029c-.008.013-.016.026-.024.04l-.011.023c-.008.017-.016.033-.023.051l0,0-.858,2.144a.8.8,0,1,0,1.493.6l.656-1.639H36.928l.656,1.639a.8.8,0,0,0,1.493-.6Z"/>
      </g>
    </g>
    <g id="Grupo_11" data-name="Grupo 11">
      <g id="Grupo_10" data-name="Grupo 10">
        <path id="Trazado_11" data-name="Trazado 11" d="M46.372,13.938a2.413,2.413,0,1,0,2.413,2.413A2.416,2.416,0,0,0,46.372,13.938Zm0,3.218a.8.8,0,1,1,.8-.8A.806.806,0,0,1,46.372,17.156Z"/>
      </g>
    </g>
    <g id="Grupo_13" data-name="Grupo 13">
      <g id="Grupo_12" data-name="Grupo 12">
        <path id="Trazado_12" data-name="Trazado 12" d="M45.138,25.752a14.206,14.206,0,1,0,0,6.928,3.484,3.484,0,0,0,0-6.928ZM31.36,41.814a12.6,12.6,0,1,1,12.327-15.2c0,.006,0,.011,0,.017a.814.814,0,0,0,.037.172A12.6,12.6,0,0,1,31.36,41.814Zm14.1-10.857a14.241,14.241,0,0,0,0-3.481,1.874,1.874,0,0,1,0,3.481Z"/>
      </g>
    </g>
    <g id="Grupo_15" data-name="Grupo 15">
      <g id="Grupo_14" data-name="Grupo 14">
        <path id="Trazado_13" data-name="Trazado 13" d="M17.959,16.083H14.742a.8.8,0,0,0,0,1.608h3.216a.8.8,0,1,0,0-1.608Z"/>
      </g>
    </g>
  </g>
</svg>
