<svg xmlns="http://www.w3.org/2000/svg" width="85" height="25.538" viewBox="0 0 85 25.538">
  <g id="travel" transform="translate(-16 -17.731)">
    <g id="Grupo_1" data-name="Grupo 1" transform="translate(16 -12)">
      <path id="logo" d="M6.13,6.658l4.242.084h3.573A8.81,8.81,0,0,1,19.3,8.193a5.294,5.294,0,0,1,1.954,4.549,5.417,5.417,0,0,1-2.093,4.633,8.912,8.912,0,0,1-5.47,1.563q-1.033,0-1.563-.028a.722.722,0,0,1-.14-.474l.14-.558q.363.028,1.451.028a5.389,5.389,0,0,0,3.712-1.312A4.48,4.48,0,0,0,18.8,13.077a5.6,5.6,0,0,0-1.34-3.768A4.068,4.068,0,0,0,14.2,7.718q-1.954,0-2.986.112a9.436,9.436,0,0,0-.251,2.093q-.084,1.619-.084,8.68v3.433q0,2.289.14,3.768a29.715,29.715,0,0,0,3.573.167,1.492,1.492,0,0,1,.112.558.61.61,0,0,1-.112.391l-4.828-.084a30.936,30.936,0,0,0-3.88.223.721.721,0,0,1-.14-.474l.028-.223a2.948,2.948,0,0,0,1.9-1.033,3.344,3.344,0,0,0,.474-1.4,55.173,55.173,0,0,0,.335-6.866q0-9.238-.5-9.406a8.264,8.264,0,0,0-1.842-.14,1.628,1.628,0,0,1-.056-.447A1.341,1.341,0,0,1,6.13,6.658ZM32.148,26.921,29.8,26.837a31.438,31.438,0,0,0-3.935.223.722.722,0,0,1-.14-.474l.028-.223a2.624,2.624,0,0,0,1.535-.754,3.8,3.8,0,0,0,.614-1.7,86.683,86.683,0,0,0,.223-8.764V8q0-2.54-.586-3.1a1.28,1.28,0,0,0-.781-.363l-1-.112a.639.639,0,0,1-.084-.335.7.7,0,0,1,.084-.363,12.312,12.312,0,0,0,3.07-.893,15.669,15.669,0,0,0,1.647-.977.5.5,0,0,1,.447.279,99.384,99.384,0,0,0-.558,13.09,31.761,31.761,0,0,1,5.666-2.6,3.1,3.1,0,0,1,2.735,1.34,6.256,6.256,0,0,1,.921,3.6l-.056,3.573q0,4.773.419,4.856a15.337,15.337,0,0,0,1.647.056.739.739,0,0,1,.112.363,1.769,1.769,0,0,1-.112.5l-2.568-.084a23.947,23.947,0,0,0-3.684.223.777.777,0,0,1-.167-.474l.056-.223a2.624,2.624,0,0,0,1.535-.754,2.192,2.192,0,0,0,.447-1.2q.084-.7.084-2.819t-.028-2.624q0-.53-.084-1.34a3.688,3.688,0,0,0-.251-1.256,5.934,5.934,0,0,0-.447-.921,2.176,2.176,0,0,0-1.982-.865,5.861,5.861,0,0,0-3.154,1.144,7.135,7.135,0,0,0-.642.419q-.391.251-.447.279-.028,1.4-.028,2.959,0,6.447.335,6.559a6.164,6.164,0,0,0,1.479.112,1.124,1.124,0,0,1,.084.447A.932.932,0,0,1,32.148,26.921Zm27.911-6.894q0,6.2-7.2,7.368a6.7,6.7,0,0,1-5-2.093,7.373,7.373,0,0,1-2.01-5.275q0-6.252,7.229-7.4a6.5,6.5,0,0,1,4.94,2.149A7.343,7.343,0,0,1,60.059,20.027ZM53.472,26.2q4.019,0,4.019-5.136a9.5,9.5,0,0,0-1.34-5.08A4.03,4.03,0,0,0,52.607,13.8a3.655,3.655,0,0,0-3.21,1.423,6.969,6.969,0,0,0-.977,4.019,8.8,8.8,0,0,0,1.368,4.773A4.176,4.176,0,0,0,53.472,26.2Zm15.012-5.359q0,4.633,1.591,4.633a8.371,8.371,0,0,0,3.042-.781q.419.14.419.781A27.6,27.6,0,0,1,68.847,27.4a2.182,2.182,0,0,1-2.01-1.34,8.122,8.122,0,0,1-.67-3.6V15.98q0-1.647-.2-1.647l-2.065.028a.258.258,0,0,1-.2-.279,3.817,3.817,0,0,0,.251-1h1.982q.223,0,.223-.977L66.14,9.728A5.719,5.719,0,0,0,68.261,8a.682.682,0,0,1,.5.167q-.251,2.931-.251,4.912,2.037,0,4.019-.2a.362.362,0,0,1,.2.335,3.1,3.1,0,0,0-.279,1.033l-3.963.056Zm22.254-.809q0,6.2-7.2,7.368a6.7,6.7,0,0,1-5-2.093,7.373,7.373,0,0,1-2.01-5.275q0-6.252,7.229-7.4A6.5,6.5,0,0,1,88.7,14.78,7.343,7.343,0,0,1,90.739,20.027ZM84.152,26.2q4.019,0,4.019-5.136a9.5,9.5,0,0,0-1.34-5.08A4.03,4.03,0,0,0,83.287,13.8a3.655,3.655,0,0,0-3.21,1.423,6.969,6.969,0,0,0-.977,4.019,8.8,8.8,0,0,0,1.368,4.773A4.176,4.176,0,0,0,84.152,26.2Z" transform="translate(-5.739 27.874)" fill="#3a0e0e"/>
    </g>
  </g>
</svg>
